<svg viewBox="0 0 1024 1024" width="200" height="200" xmlns="http://www.w3.org/2000/svg"><path d="M511.5 215.6c-163.1 0-295.5 132.3-295.5 295.5 0 163.1 132.3 295.5 295.5 295.5 163.1 0 295.5-132.3 295.5-295.5 0-163.1-132.3-295.5-295.5-295.5zM738.9 531.7c0 9.2-7.3 16.4-16.4 16.4L508.7 548v16.5c0 9-7.4 16.4-16.4 16.4-9.2 0-16.4-7.3-16.4-16.4v-16.5l-16.5 0c-9 0-16.4-7.4-16.4-16.4 0-9.2 7.3-16.4 16.4-16.4l16.5 0L475.8 301.4c0-9 7.4-16.4 16.4-16.4 9.2 0 16.4 7.3 16.4 16.4l0 213.8 213.8 0c0 9.1 7.4 16.4 16.4 16.4zM511.5 127.9c-211.5 0-383.1 171.5-383.1 383.1 0 211.5 171.4 383.1 383.1 383.1 211.6 0 383.1-171.5 383.1-383.1 0-211.5-171.4-383.1-383.1-383.1zM763.8 763.3c-32.8 32.8-70.9 58.5-113.4 76.5-43.9 18.6-90.7 28-138.9 28-48.2 0-94.9-9.4-138.9-28-42.5-18-80.7-43.7-113.4-76.5-32.8-32.8-58.5-70.9-76.5-113.4-18.6-43.9-28-90.7-28-138.9 0-48.2 9.4-94.9 28-138.9 18-42.5 43.7-80.7 76.5-113.4 32.8-32.7 70.9-58.5 113.4-76.5 44-18.6 90.7-28.1 138.9-28.1 48.2 0 94.9 9.4 138.9 28 42.5 18 80.7 43.7 113.4 76.5 32.7 32.8 58.5 70.9 76.5 113.4 18.6 44 28 90.8 28 138.9 0 48.2-9.4 94.9-28 138.9-18 42.5-43.7 80.7-76.5 113.4z" fill="#272636"/></svg>
